<mxfile host="app.diagrams.net" modified="2023-04-17T01:23:31.370Z" agent="Mozilla/5.0 (Windows NT 10.0; Win64; x64) AppleWebKit/537.36 (KHTML, like Gecko) Chrome/112.0.0.0 Safari/537.36" etag="Q0UKnIGENxFWq9nltk5j" version="21.1.8" type="github" pages="4">
  <diagram id="zhPuj6izKf-El-VcQIsU" name="Page-1">
    <mxGraphModel dx="1290" dy="549" grid="1" gridSize="10" guides="1" tooltips="1" connect="1" arrows="1" fold="1" page="1" pageScale="1" pageWidth="850" pageHeight="1100" math="0" shadow="0">
      <root>
        <mxCell id="0" />
        <mxCell id="1" parent="0" />
        <mxCell id="lnYW6yoHgZj4JQKea9A1-5" style="edgeStyle=orthogonalEdgeStyle;rounded=0;orthogonalLoop=1;jettySize=auto;html=1;entryX=0;entryY=0.5;entryDx=0;entryDy=0;" parent="1" source="lnYW6yoHgZj4JQKea9A1-1" target="lnYW6yoHgZj4JQKea9A1-4" edge="1">
          <mxGeometry relative="1" as="geometry" />
        </mxCell>
        <mxCell id="lnYW6yoHgZj4JQKea9A1-7" style="edgeStyle=orthogonalEdgeStyle;rounded=0;orthogonalLoop=1;jettySize=auto;html=1;entryX=0.5;entryY=0;entryDx=0;entryDy=0;" parent="1" source="lnYW6yoHgZj4JQKea9A1-1" target="lnYW6yoHgZj4JQKea9A1-2" edge="1">
          <mxGeometry relative="1" as="geometry" />
        </mxCell>
        <mxCell id="lnYW6yoHgZj4JQKea9A1-8" value="sync" style="edgeLabel;html=1;align=center;verticalAlign=middle;resizable=0;points=[];" parent="lnYW6yoHgZj4JQKea9A1-7" vertex="1" connectable="0">
          <mxGeometry x="-0.1475" y="2" relative="1" as="geometry">
            <mxPoint as="offset" />
          </mxGeometry>
        </mxCell>
        <mxCell id="lnYW6yoHgZj4JQKea9A1-1" value="suite CRM" style="rounded=0;whiteSpace=wrap;html=1;" parent="1" vertex="1">
          <mxGeometry x="170" y="160" width="120" height="60" as="geometry" />
        </mxCell>
        <mxCell id="lnYW6yoHgZj4JQKea9A1-2" value="Quickbooks" style="rounded=0;whiteSpace=wrap;html=1;" parent="1" vertex="1">
          <mxGeometry x="170" y="310" width="120" height="60" as="geometry" />
        </mxCell>
        <mxCell id="lnYW6yoHgZj4JQKea9A1-3" value="Connectwise" style="rounded=0;whiteSpace=wrap;html=1;" parent="1" vertex="1">
          <mxGeometry x="630" y="230" width="120" height="60" as="geometry" />
        </mxCell>
        <mxCell id="lnYW6yoHgZj4JQKea9A1-9" style="edgeStyle=orthogonalEdgeStyle;rounded=0;orthogonalLoop=1;jettySize=auto;html=1;entryX=0;entryY=0.5;entryDx=0;entryDy=0;" parent="1" source="lnYW6yoHgZj4JQKea9A1-4" target="lnYW6yoHgZj4JQKea9A1-3" edge="1">
          <mxGeometry relative="1" as="geometry" />
        </mxCell>
        <mxCell id="lnYW6yoHgZj4JQKea9A1-10" value="upload" style="edgeLabel;html=1;align=center;verticalAlign=middle;resizable=0;points=[];" parent="lnYW6yoHgZj4JQKea9A1-9" vertex="1" connectable="0">
          <mxGeometry x="0.2327" y="1" relative="1" as="geometry">
            <mxPoint x="-18" y="1" as="offset" />
          </mxGeometry>
        </mxCell>
        <mxCell id="lnYW6yoHgZj4JQKea9A1-4" value="Excel file" style="rounded=0;whiteSpace=wrap;html=1;" parent="1" vertex="1">
          <mxGeometry x="410" y="230" width="120" height="60" as="geometry" />
        </mxCell>
      </root>
    </mxGraphModel>
  </diagram>
  <diagram id="FYVs-mCgX2ePvRQR7abV" name="Org Chart">
    <mxGraphModel dx="2990" dy="1649" grid="1" gridSize="10" guides="1" tooltips="1" connect="1" arrows="1" fold="1" page="1" pageScale="1" pageWidth="850" pageHeight="1100" math="0" shadow="0">
      <root>
        <mxCell id="0" />
        <mxCell id="1" parent="0" />
        <mxCell id="jdCF62me6mRUtdHBRK2F-1" value="CEO/Founder&lt;br&gt;Sridhar" style="rounded=0;whiteSpace=wrap;html=1;" parent="1" vertex="1">
          <mxGeometry x="340" y="40" width="110" height="40" as="geometry" />
        </mxCell>
        <mxCell id="jdCF62me6mRUtdHBRK2F-2" value="CTO/Partner&lt;br&gt;Arun" style="rounded=0;whiteSpace=wrap;html=1;" parent="1" vertex="1">
          <mxGeometry x="40" y="120" width="110" height="40" as="geometry" />
        </mxCell>
        <mxCell id="jdCF62me6mRUtdHBRK2F-7" style="edgeStyle=orthogonalEdgeStyle;rounded=0;orthogonalLoop=1;jettySize=auto;html=1;entryX=0.564;entryY=-0.025;entryDx=0;entryDy=0;entryPerimeter=0;" parent="1" source="jdCF62me6mRUtdHBRK2F-3" target="jdCF62me6mRUtdHBRK2F-5" edge="1">
          <mxGeometry relative="1" as="geometry" />
        </mxCell>
        <mxCell id="jdCF62me6mRUtdHBRK2F-8" style="edgeStyle=orthogonalEdgeStyle;rounded=0;orthogonalLoop=1;jettySize=auto;html=1;exitX=0.5;exitY=1;exitDx=0;exitDy=0;" parent="1" source="jdCF62me6mRUtdHBRK2F-3" target="jdCF62me6mRUtdHBRK2F-6" edge="1">
          <mxGeometry relative="1" as="geometry" />
        </mxCell>
        <mxCell id="jdCF62me6mRUtdHBRK2F-3" value="CRO&lt;br&gt;Kyle" style="rounded=0;whiteSpace=wrap;html=1;" parent="1" vertex="1">
          <mxGeometry x="1170" y="160" width="110" height="40" as="geometry" />
        </mxCell>
        <mxCell id="jdCF62me6mRUtdHBRK2F-5" value="Sales Manager - East&lt;br&gt;??" style="rounded=0;whiteSpace=wrap;html=1;" parent="1" vertex="1">
          <mxGeometry x="1050" y="240" width="140" height="40" as="geometry" />
        </mxCell>
        <mxCell id="jdCF62me6mRUtdHBRK2F-6" value="Head of Sales - India&lt;br style=&quot;border-color: var(--border-color);&quot;&gt;Hansraj" style="rounded=0;whiteSpace=wrap;html=1;" parent="1" vertex="1">
          <mxGeometry x="1420" y="240" width="130" height="40" as="geometry" />
        </mxCell>
        <mxCell id="_2zsdvVcME8JWid-AY3Q-1" value="Ibexlabs" style="rounded=0;whiteSpace=wrap;html=1;" parent="1" vertex="1">
          <mxGeometry x="340" y="-50" width="110" height="40" as="geometry" />
        </mxCell>
        <mxCell id="_2zsdvVcME8JWid-AY3Q-10" value="" style="endArrow=none;html=1;rounded=0;entryX=0.5;entryY=1;entryDx=0;entryDy=0;" parent="1" source="jdCF62me6mRUtdHBRK2F-1" target="_2zsdvVcME8JWid-AY3Q-1" edge="1">
          <mxGeometry width="50" height="50" relative="1" as="geometry">
            <mxPoint x="490" y="60" as="sourcePoint" />
            <mxPoint x="540" y="10" as="targetPoint" />
          </mxGeometry>
        </mxCell>
        <mxCell id="_2zsdvVcME8JWid-AY3Q-11" value="" style="endArrow=none;html=1;rounded=0;entryX=0.5;entryY=1;entryDx=0;entryDy=0;exitX=0.5;exitY=0;exitDx=0;exitDy=0;edgeStyle=orthogonalEdgeStyle;" parent="1" source="jdCF62me6mRUtdHBRK2F-2" target="jdCF62me6mRUtdHBRK2F-1" edge="1">
          <mxGeometry width="50" height="50" relative="1" as="geometry">
            <mxPoint x="350" y="150" as="sourcePoint" />
            <mxPoint x="400" y="100" as="targetPoint" />
          </mxGeometry>
        </mxCell>
        <mxCell id="_2zsdvVcME8JWid-AY3Q-13" value="" style="endArrow=none;html=1;rounded=0;entryX=0.5;entryY=1;entryDx=0;entryDy=0;exitX=0.5;exitY=0;exitDx=0;exitDy=0;edgeStyle=orthogonalEdgeStyle;" parent="1" source="jdCF62me6mRUtdHBRK2F-3" target="jdCF62me6mRUtdHBRK2F-1" edge="1">
          <mxGeometry width="50" height="50" relative="1" as="geometry">
            <mxPoint x="400" y="160" as="sourcePoint" />
            <mxPoint x="450" y="110" as="targetPoint" />
          </mxGeometry>
        </mxCell>
        <mxCell id="_2zsdvVcME8JWid-AY3Q-123" style="edgeStyle=orthogonalEdgeStyle;rounded=0;orthogonalLoop=1;jettySize=auto;html=1;entryX=0.48;entryY=0.2;entryDx=0;entryDy=0;entryPerimeter=0;" parent="1" source="_2zsdvVcME8JWid-AY3Q-15" target="_2zsdvVcME8JWid-AY3Q-85" edge="1">
          <mxGeometry relative="1" as="geometry" />
        </mxCell>
        <mxCell id="_2zsdvVcME8JWid-AY3Q-15" value="&lt;b&gt;Team - DevOps - Offshore&lt;/b&gt;" style="rounded=0;whiteSpace=wrap;html=1;verticalAlign=top;" parent="1" vertex="1">
          <mxGeometry x="-470" y="260" width="450" height="530" as="geometry" />
        </mxCell>
        <mxCell id="_2zsdvVcME8JWid-AY3Q-17" value="POD 2" style="rounded=0;whiteSpace=wrap;html=1;verticalAlign=top;" parent="1" vertex="1">
          <mxGeometry x="-230" y="355" width="170" height="185" as="geometry" />
        </mxCell>
        <mxCell id="_2zsdvVcME8JWid-AY3Q-93" style="edgeStyle=orthogonalEdgeStyle;rounded=0;orthogonalLoop=1;jettySize=auto;html=1;entryX=0;entryY=0.359;entryDx=0;entryDy=0;entryPerimeter=0;" parent="1" source="_2zsdvVcME8JWid-AY3Q-18" target="_2zsdvVcME8JWid-AY3Q-42" edge="1">
          <mxGeometry relative="1" as="geometry" />
        </mxCell>
        <mxCell id="_2zsdvVcME8JWid-AY3Q-95" style="edgeStyle=orthogonalEdgeStyle;rounded=0;orthogonalLoop=1;jettySize=auto;html=1;entryX=1;entryY=0.359;entryDx=0;entryDy=0;entryPerimeter=0;" parent="1" source="_2zsdvVcME8JWid-AY3Q-18" target="_2zsdvVcME8JWid-AY3Q-15" edge="1">
          <mxGeometry relative="1" as="geometry" />
        </mxCell>
        <mxCell id="_2zsdvVcME8JWid-AY3Q-106" style="edgeStyle=orthogonalEdgeStyle;rounded=0;orthogonalLoop=1;jettySize=auto;html=1;" parent="1" source="_2zsdvVcME8JWid-AY3Q-18" target="_2zsdvVcME8JWid-AY3Q-96" edge="1">
          <mxGeometry relative="1" as="geometry" />
        </mxCell>
        <mxCell id="_2zsdvVcME8JWid-AY3Q-18" value="PM - US(Q2 start)&lt;br&gt;??&lt;br&gt;&lt;br&gt;PreSales Architect/Delivery Manager(Q2 start)" style="rounded=0;whiteSpace=wrap;html=1;" parent="1" vertex="1">
          <mxGeometry x="40" y="403.62" width="110" height="92.75" as="geometry" />
        </mxCell>
        <mxCell id="_2zsdvVcME8JWid-AY3Q-19" value="Delivery Manager(Q2 start)" style="rounded=0;whiteSpace=wrap;html=1;" parent="1" vertex="1">
          <mxGeometry x="-430" y="300" width="370" height="40" as="geometry" />
        </mxCell>
        <mxCell id="_2zsdvVcME8JWid-AY3Q-20" value="DevOps Lead&lt;br&gt;Santosh" style="rounded=0;whiteSpace=wrap;html=1;" parent="1" vertex="1">
          <mxGeometry x="-205" y="385" width="110" height="30" as="geometry" />
        </mxCell>
        <mxCell id="_2zsdvVcME8JWid-AY3Q-21" value="DevOps Engineer&lt;br&gt;Rajesh" style="rounded=0;whiteSpace=wrap;html=1;" parent="1" vertex="1">
          <mxGeometry x="-205" y="435" width="110" height="30" as="geometry" />
        </mxCell>
        <mxCell id="_2zsdvVcME8JWid-AY3Q-22" value="DevOps Engineer" style="rounded=0;whiteSpace=wrap;html=1;" parent="1" vertex="1">
          <mxGeometry x="-205" y="485" width="110" height="30" as="geometry" />
        </mxCell>
        <mxCell id="_2zsdvVcME8JWid-AY3Q-23" value="DevOps Lead&lt;br&gt;Malli" style="rounded=0;whiteSpace=wrap;html=1;" parent="1" vertex="1">
          <mxGeometry x="-205" y="385" width="110" height="30" as="geometry" />
        </mxCell>
        <mxCell id="_2zsdvVcME8JWid-AY3Q-24" value="DevOps Engineer&lt;br&gt;" style="rounded=0;whiteSpace=wrap;html=1;" parent="1" vertex="1">
          <mxGeometry x="-205" y="435" width="110" height="30" as="geometry" />
        </mxCell>
        <mxCell id="_2zsdvVcME8JWid-AY3Q-28" value="POD 3" style="rounded=0;whiteSpace=wrap;html=1;verticalAlign=top;" parent="1" vertex="1">
          <mxGeometry x="-430" y="570" width="170" height="190" as="geometry" />
        </mxCell>
        <mxCell id="_2zsdvVcME8JWid-AY3Q-29" value="DevOps Engineer" style="rounded=0;whiteSpace=wrap;html=1;" parent="1" vertex="1">
          <mxGeometry x="-405" y="700" width="110" height="30" as="geometry" />
        </mxCell>
        <mxCell id="_2zsdvVcME8JWid-AY3Q-30" value="DevOps Lead&lt;br&gt;Venu" style="rounded=0;whiteSpace=wrap;html=1;" parent="1" vertex="1">
          <mxGeometry x="-405" y="600" width="110" height="30" as="geometry" />
        </mxCell>
        <mxCell id="_2zsdvVcME8JWid-AY3Q-31" value="DevOps Engineer&lt;br&gt;" style="rounded=0;whiteSpace=wrap;html=1;" parent="1" vertex="1">
          <mxGeometry x="-405" y="650" width="110" height="30" as="geometry" />
        </mxCell>
        <mxCell id="_2zsdvVcME8JWid-AY3Q-33" value="POD 1" style="rounded=0;whiteSpace=wrap;html=1;verticalAlign=top;" parent="1" vertex="1">
          <mxGeometry x="-430" y="355" width="170" height="190" as="geometry" />
        </mxCell>
        <mxCell id="_2zsdvVcME8JWid-AY3Q-34" value="DevOps Engineer" style="rounded=0;whiteSpace=wrap;html=1;" parent="1" vertex="1">
          <mxGeometry x="-405" y="485" width="110" height="30" as="geometry" />
        </mxCell>
        <mxCell id="_2zsdvVcME8JWid-AY3Q-35" value="DevOps Lead&lt;br&gt;Santosh" style="rounded=0;whiteSpace=wrap;html=1;" parent="1" vertex="1">
          <mxGeometry x="-405" y="385" width="110" height="30" as="geometry" />
        </mxCell>
        <mxCell id="_2zsdvVcME8JWid-AY3Q-36" value="DevOps Engineer&lt;br&gt;Rajesh" style="rounded=0;whiteSpace=wrap;html=1;" parent="1" vertex="1">
          <mxGeometry x="-405" y="435" width="110" height="30" as="geometry" />
        </mxCell>
        <mxCell id="_2zsdvVcME8JWid-AY3Q-37" value="POD 4" style="rounded=0;whiteSpace=wrap;html=1;verticalAlign=top;" parent="1" vertex="1">
          <mxGeometry x="-230" y="570" width="170" height="190" as="geometry" />
        </mxCell>
        <mxCell id="_2zsdvVcME8JWid-AY3Q-38" value="DevOps Engineer" style="rounded=0;whiteSpace=wrap;html=1;" parent="1" vertex="1">
          <mxGeometry x="-205" y="700" width="110" height="30" as="geometry" />
        </mxCell>
        <mxCell id="_2zsdvVcME8JWid-AY3Q-39" value="DevOps Lead&lt;br&gt;Kiran" style="rounded=0;whiteSpace=wrap;html=1;" parent="1" vertex="1">
          <mxGeometry x="-205" y="600" width="110" height="30" as="geometry" />
        </mxCell>
        <mxCell id="_2zsdvVcME8JWid-AY3Q-40" value="DevOps Engineer&lt;br&gt;" style="rounded=0;whiteSpace=wrap;html=1;" parent="1" vertex="1">
          <mxGeometry x="-205" y="650" width="110" height="30" as="geometry" />
        </mxCell>
        <mxCell id="_2zsdvVcME8JWid-AY3Q-124" style="edgeStyle=orthogonalEdgeStyle;rounded=0;orthogonalLoop=1;jettySize=auto;html=1;entryX=0.927;entryY=0;entryDx=0;entryDy=0;entryPerimeter=0;" parent="1" source="_2zsdvVcME8JWid-AY3Q-42" target="_2zsdvVcME8JWid-AY3Q-85" edge="1">
          <mxGeometry relative="1" as="geometry" />
        </mxCell>
        <mxCell id="_2zsdvVcME8JWid-AY3Q-42" value="&lt;b&gt;Team - Development POD - Offshore&lt;/b&gt;" style="rounded=0;whiteSpace=wrap;html=1;verticalAlign=top;" parent="1" vertex="1">
          <mxGeometry x="220" y="260" width="400" height="530" as="geometry" />
        </mxCell>
        <mxCell id="_2zsdvVcME8JWid-AY3Q-45" value="Delivery Manager&lt;br&gt;Manjunath" style="rounded=0;whiteSpace=wrap;html=1;" parent="1" vertex="1">
          <mxGeometry x="260" y="300" width="310" height="40" as="geometry" />
        </mxCell>
        <mxCell id="_2zsdvVcME8JWid-AY3Q-57" value="Lead Backend Engineer&lt;br&gt;Shashank" style="rounded=0;whiteSpace=wrap;html=1;" parent="1" vertex="1">
          <mxGeometry x="247.5" y="367.25" width="155" height="30" as="geometry" />
        </mxCell>
        <mxCell id="_2zsdvVcME8JWid-AY3Q-58" value="Lead Front End Engineer&lt;br&gt;Aman" style="rounded=0;whiteSpace=wrap;html=1;" parent="1" vertex="1">
          <mxGeometry x="247.5" y="498.5" width="155" height="30" as="geometry" />
        </mxCell>
        <mxCell id="_2zsdvVcME8JWid-AY3Q-63" value="Lead Front End Engineer&lt;br&gt;Pooja" style="rounded=0;whiteSpace=wrap;html=1;" parent="1" vertex="1">
          <mxGeometry x="247.5" y="545" width="155" height="30" as="geometry" />
        </mxCell>
        <mxCell id="_2zsdvVcME8JWid-AY3Q-74" value="Lead QA Engineer(Q2 Start)&lt;br&gt;??" style="rounded=0;whiteSpace=wrap;html=1;" parent="1" vertex="1">
          <mxGeometry x="447.5" y="367.25" width="155" height="30" as="geometry" />
        </mxCell>
        <mxCell id="_2zsdvVcME8JWid-AY3Q-77" value="" style="endArrow=none;html=1;rounded=0;edgeStyle=orthogonalEdgeStyle;exitX=0.5;exitY=1;exitDx=0;exitDy=0;entryX=0.5;entryY=0;entryDx=0;entryDy=0;" parent="1" source="jdCF62me6mRUtdHBRK2F-2" target="_2zsdvVcME8JWid-AY3Q-18" edge="1">
          <mxGeometry width="50" height="50" relative="1" as="geometry">
            <mxPoint x="80" y="210" as="sourcePoint" />
            <mxPoint x="-20" y="250" as="targetPoint" />
          </mxGeometry>
        </mxCell>
        <mxCell id="_2zsdvVcME8JWid-AY3Q-78" value="" style="endArrow=none;html=1;rounded=0;exitX=0.5;exitY=0;exitDx=0;exitDy=0;entryX=0.5;entryY=1;entryDx=0;entryDy=0;edgeStyle=orthogonalEdgeStyle;" parent="1" source="_2zsdvVcME8JWid-AY3Q-81" target="jdCF62me6mRUtdHBRK2F-1" edge="1">
          <mxGeometry width="50" height="50" relative="1" as="geometry">
            <mxPoint x="745" y="100" as="sourcePoint" />
            <mxPoint x="795" y="50" as="targetPoint" />
          </mxGeometry>
        </mxCell>
        <mxCell id="1UjJBFx8aX4SkcS3IcKZ-5" style="edgeStyle=orthogonalEdgeStyle;rounded=0;orthogonalLoop=1;jettySize=auto;html=1;entryX=0.5;entryY=0;entryDx=0;entryDy=0;" parent="1" source="_2zsdvVcME8JWid-AY3Q-80" target="1UjJBFx8aX4SkcS3IcKZ-4" edge="1">
          <mxGeometry relative="1" as="geometry" />
        </mxCell>
        <mxCell id="_2zsdvVcME8JWid-AY3Q-80" value="Account Manager - US&lt;br&gt;Kyle" style="rounded=0;whiteSpace=wrap;html=1;" parent="1" vertex="1">
          <mxGeometry x="950" y="468.87" width="150" height="40" as="geometry" />
        </mxCell>
        <mxCell id="_2zsdvVcME8JWid-AY3Q-81" value="Head of Marketing - US&lt;br&gt;??" style="rounded=0;whiteSpace=wrap;html=1;" parent="1" vertex="1">
          <mxGeometry x="830" y="160" width="170" height="40" as="geometry" />
        </mxCell>
        <mxCell id="_2zsdvVcME8JWid-AY3Q-83" style="edgeStyle=orthogonalEdgeStyle;rounded=0;orthogonalLoop=1;jettySize=auto;html=1;entryX=0.5;entryY=1;entryDx=0;entryDy=0;" parent="1" source="_2zsdvVcME8JWid-AY3Q-82" target="_2zsdvVcME8JWid-AY3Q-81" edge="1">
          <mxGeometry relative="1" as="geometry" />
        </mxCell>
        <mxCell id="_2zsdvVcME8JWid-AY3Q-82" value="Marketing Manager - India&lt;br&gt;Sonali" style="rounded=0;whiteSpace=wrap;html=1;" parent="1" vertex="1">
          <mxGeometry x="830" y="240" width="170" height="40" as="geometry" />
        </mxCell>
        <mxCell id="_2zsdvVcME8JWid-AY3Q-85" value="SRE &amp;amp; Observability" style="rounded=0;whiteSpace=wrap;html=1;" parent="1" vertex="1">
          <mxGeometry x="-970" y="890" width="1510" height="50" as="geometry" />
        </mxCell>
        <mxCell id="_2zsdvVcME8JWid-AY3Q-86" value="Operations - US&lt;br&gt;??" style="rounded=0;whiteSpace=wrap;html=1;" parent="1" vertex="1">
          <mxGeometry x="670" y="160" width="130" height="40" as="geometry" />
        </mxCell>
        <mxCell id="_2zsdvVcME8JWid-AY3Q-87" value="HR - India&lt;br&gt;Pragna" style="rounded=0;whiteSpace=wrap;html=1;" parent="1" vertex="1">
          <mxGeometry x="520" y="160" width="120" height="40" as="geometry" />
        </mxCell>
        <mxCell id="_2zsdvVcME8JWid-AY3Q-88" value="" style="endArrow=none;html=1;rounded=0;entryX=0.5;entryY=1;entryDx=0;entryDy=0;exitX=0.5;exitY=0;exitDx=0;exitDy=0;edgeStyle=orthogonalEdgeStyle;" parent="1" source="_2zsdvVcME8JWid-AY3Q-86" target="jdCF62me6mRUtdHBRK2F-1" edge="1">
          <mxGeometry width="50" height="50" relative="1" as="geometry">
            <mxPoint x="670" y="80" as="sourcePoint" />
            <mxPoint x="670" y="280" as="targetPoint" />
          </mxGeometry>
        </mxCell>
        <mxCell id="_2zsdvVcME8JWid-AY3Q-90" value="" style="endArrow=none;html=1;rounded=0;exitX=0.5;exitY=0;exitDx=0;exitDy=0;entryX=0.5;entryY=1;entryDx=0;entryDy=0;edgeStyle=orthogonalEdgeStyle;" parent="1" source="_2zsdvVcME8JWid-AY3Q-87" target="jdCF62me6mRUtdHBRK2F-1" edge="1">
          <mxGeometry width="50" height="50" relative="1" as="geometry">
            <mxPoint x="520" y="110" as="sourcePoint" />
            <mxPoint x="570" y="60" as="targetPoint" />
          </mxGeometry>
        </mxCell>
        <mxCell id="_2zsdvVcME8JWid-AY3Q-97" style="edgeStyle=orthogonalEdgeStyle;rounded=0;orthogonalLoop=1;jettySize=auto;html=1;entryX=0;entryY=0.707;entryDx=0;entryDy=0;entryPerimeter=0;" parent="1" source="_2zsdvVcME8JWid-AY3Q-96" target="_2zsdvVcME8JWid-AY3Q-42" edge="1">
          <mxGeometry relative="1" as="geometry" />
        </mxCell>
        <mxCell id="_2zsdvVcME8JWid-AY3Q-98" style="edgeStyle=orthogonalEdgeStyle;rounded=0;orthogonalLoop=1;jettySize=auto;html=1;entryX=1;entryY=0.705;entryDx=0;entryDy=0;entryPerimeter=0;" parent="1" source="_2zsdvVcME8JWid-AY3Q-96" target="_2zsdvVcME8JWid-AY3Q-15" edge="1">
          <mxGeometry relative="1" as="geometry" />
        </mxCell>
        <mxCell id="_2zsdvVcME8JWid-AY3Q-96" value="PM - India&lt;br&gt;Vaishali&lt;br&gt;&lt;br&gt;AWS Architect(Q2 start)" style="rounded=0;whiteSpace=wrap;html=1;" parent="1" vertex="1">
          <mxGeometry x="50" y="587.25" width="90" height="92.75" as="geometry" />
        </mxCell>
        <mxCell id="_2zsdvVcME8JWid-AY3Q-102" value="" style="endArrow=none;html=1;rounded=0;entryX=0.5;entryY=1;entryDx=0;entryDy=0;exitX=0.5;exitY=0;exitDx=0;exitDy=0;edgeStyle=orthogonalEdgeStyle;" parent="1" source="_2zsdvVcME8JWid-AY3Q-15" target="jdCF62me6mRUtdHBRK2F-2" edge="1">
          <mxGeometry width="50" height="50" relative="1" as="geometry">
            <mxPoint x="-90" y="210" as="sourcePoint" />
            <mxPoint x="-40" y="160" as="targetPoint" />
          </mxGeometry>
        </mxCell>
        <mxCell id="_2zsdvVcME8JWid-AY3Q-103" value="" style="endArrow=none;html=1;rounded=0;exitX=0.5;exitY=1;exitDx=0;exitDy=0;entryX=0.5;entryY=0;entryDx=0;entryDy=0;edgeStyle=orthogonalEdgeStyle;" parent="1" source="jdCF62me6mRUtdHBRK2F-2" target="_2zsdvVcME8JWid-AY3Q-42" edge="1">
          <mxGeometry width="50" height="50" relative="1" as="geometry">
            <mxPoint x="160" y="240" as="sourcePoint" />
            <mxPoint x="260" y="160" as="targetPoint" />
          </mxGeometry>
        </mxCell>
        <mxCell id="_2zsdvVcME8JWid-AY3Q-105" style="edgeStyle=orthogonalEdgeStyle;rounded=0;orthogonalLoop=1;jettySize=auto;html=1;exitX=0.5;exitY=1;exitDx=0;exitDy=0;" parent="1" source="jdCF62me6mRUtdHBRK2F-3" target="_2zsdvVcME8JWid-AY3Q-104" edge="1">
          <mxGeometry relative="1" as="geometry" />
        </mxCell>
        <mxCell id="_2zsdvVcME8JWid-AY3Q-104" value="Sales Manager - Central" style="rounded=0;whiteSpace=wrap;html=1;" parent="1" vertex="1">
          <mxGeometry x="1240" y="240" width="140" height="40" as="geometry" />
        </mxCell>
        <mxCell id="_2zsdvVcME8JWid-AY3Q-107" value="Front End Engineer&lt;br&gt;" style="rounded=0;whiteSpace=wrap;html=1;" parent="1" vertex="1">
          <mxGeometry x="247.5" y="600" width="155" height="30" as="geometry" />
        </mxCell>
        <mxCell id="_2zsdvVcME8JWid-AY3Q-109" value="Front End Engineer&lt;br&gt;" style="rounded=0;whiteSpace=wrap;html=1;" parent="1" vertex="1">
          <mxGeometry x="247.5" y="650" width="155" height="30" as="geometry" />
        </mxCell>
        <mxCell id="_2zsdvVcME8JWid-AY3Q-110" value="Backend Engineer(2 - Q1 End)&lt;br&gt;??" style="rounded=0;whiteSpace=wrap;html=1;" parent="1" vertex="1">
          <mxGeometry x="233.75" y="426.12" width="182.5" height="42.75" as="geometry" />
        </mxCell>
        <mxCell id="_2zsdvVcME8JWid-AY3Q-121" style="edgeStyle=orthogonalEdgeStyle;rounded=0;orthogonalLoop=1;jettySize=auto;html=1;entryX=0;entryY=0.5;entryDx=0;entryDy=0;" parent="1" source="_2zsdvVcME8JWid-AY3Q-112" target="_2zsdvVcME8JWid-AY3Q-15" edge="1">
          <mxGeometry relative="1" as="geometry" />
        </mxCell>
        <mxCell id="_2zsdvVcME8JWid-AY3Q-122" style="edgeStyle=orthogonalEdgeStyle;rounded=0;orthogonalLoop=1;jettySize=auto;html=1;entryX=0.133;entryY=0.021;entryDx=0;entryDy=0;entryPerimeter=0;" parent="1" source="_2zsdvVcME8JWid-AY3Q-112" target="_2zsdvVcME8JWid-AY3Q-85" edge="1">
          <mxGeometry relative="1" as="geometry" />
        </mxCell>
        <mxCell id="_2zsdvVcME8JWid-AY3Q-112" value="&lt;b&gt;Solution POD&lt;/b&gt;" style="rounded=0;whiteSpace=wrap;html=1;verticalAlign=top;" parent="1" vertex="1">
          <mxGeometry x="-970" y="330" width="400" height="390" as="geometry" />
        </mxCell>
        <mxCell id="_2zsdvVcME8JWid-AY3Q-113" value="Delivery Lead" style="rounded=0;whiteSpace=wrap;html=1;" parent="1" vertex="1">
          <mxGeometry x="-930" y="480" width="310" height="40" as="geometry" />
        </mxCell>
        <mxCell id="_2zsdvVcME8JWid-AY3Q-114" value="AWS Engineer" style="rounded=0;whiteSpace=wrap;html=1;" parent="1" vertex="1">
          <mxGeometry x="-942.5" y="367.25" width="155" height="30" as="geometry" />
        </mxCell>
        <mxCell id="_2zsdvVcME8JWid-AY3Q-115" value="Front End Engineer" style="rounded=0;whiteSpace=wrap;html=1;" parent="1" vertex="1">
          <mxGeometry x="-942.5" y="426.12" width="155" height="30" as="geometry" />
        </mxCell>
        <mxCell id="_2zsdvVcME8JWid-AY3Q-117" value="Lead QA Engineer(Q2 Start)&lt;br&gt;??" style="rounded=0;whiteSpace=wrap;html=1;" parent="1" vertex="1">
          <mxGeometry x="-742.5" y="367.25" width="155" height="30" as="geometry" />
        </mxCell>
        <mxCell id="1UjJBFx8aX4SkcS3IcKZ-1" value="Wellbeam&lt;br&gt;TimelyMD&lt;br&gt;Lecole&lt;br&gt;Helio&lt;br&gt;Payforward&lt;br&gt;NOMO&lt;br&gt;Healthbridge&lt;br&gt;4site" style="text;html=1;align=center;verticalAlign=middle;resizable=0;points=[];autosize=1;strokeColor=none;fillColor=none;" parent="1" vertex="1">
          <mxGeometry x="645" y="390" width="90" height="130" as="geometry" />
        </mxCell>
        <mxCell id="1UjJBFx8aX4SkcS3IcKZ-2" value="South America ( Q2 start)&lt;br&gt;&lt;br&gt;Project Manager&lt;br&gt;Senior DevOps Engineer&lt;br&gt;Senior Backend Developer" style="rounded=0;whiteSpace=wrap;html=1;fillColor=#FFFFCC;" parent="1" vertex="1">
          <mxGeometry x="-350" y="1010" width="210" height="115" as="geometry" />
        </mxCell>
        <mxCell id="1UjJBFx8aX4SkcS3IcKZ-7" style="edgeStyle=orthogonalEdgeStyle;rounded=0;orthogonalLoop=1;jettySize=auto;html=1;entryX=0.5;entryY=0;entryDx=0;entryDy=0;" parent="1" source="1UjJBFx8aX4SkcS3IcKZ-4" target="1UjJBFx8aX4SkcS3IcKZ-6" edge="1">
          <mxGeometry relative="1" as="geometry" />
        </mxCell>
        <mxCell id="1UjJBFx8aX4SkcS3IcKZ-4" value="Pre-Sales SA&lt;br&gt;Arun" style="whiteSpace=wrap;html=1;rounded=0;" parent="1" vertex="1">
          <mxGeometry x="870" y="560" width="120" height="40" as="geometry" />
        </mxCell>
        <mxCell id="1UjJBFx8aX4SkcS3IcKZ-10" style="edgeStyle=orthogonalEdgeStyle;rounded=0;orthogonalLoop=1;jettySize=auto;html=1;entryX=0.633;entryY=-0.015;entryDx=0;entryDy=0;entryPerimeter=0;" parent="1" source="1UjJBFx8aX4SkcS3IcKZ-6" target="1UjJBFx8aX4SkcS3IcKZ-8" edge="1">
          <mxGeometry relative="1" as="geometry" />
        </mxCell>
        <mxCell id="1UjJBFx8aX4SkcS3IcKZ-11" style="edgeStyle=orthogonalEdgeStyle;rounded=0;orthogonalLoop=1;jettySize=auto;html=1;" parent="1" source="1UjJBFx8aX4SkcS3IcKZ-6" target="1UjJBFx8aX4SkcS3IcKZ-9" edge="1">
          <mxGeometry relative="1" as="geometry" />
        </mxCell>
        <mxCell id="1UjJBFx8aX4SkcS3IcKZ-6" value="Delivery Manager&lt;br&gt;Manjunath" style="whiteSpace=wrap;html=1;rounded=0;" parent="1" vertex="1">
          <mxGeometry x="960" y="645" width="140" height="40" as="geometry" />
        </mxCell>
        <mxCell id="1UjJBFx8aX4SkcS3IcKZ-8" value="POD 1" style="whiteSpace=wrap;html=1;rounded=0;" parent="1" vertex="1">
          <mxGeometry x="870" y="750" width="120" height="40" as="geometry" />
        </mxCell>
        <mxCell id="1UjJBFx8aX4SkcS3IcKZ-9" value="POD 2" style="whiteSpace=wrap;html=1;rounded=0;" parent="1" vertex="1">
          <mxGeometry x="1060" y="750" width="120" height="40" as="geometry" />
        </mxCell>
        <mxCell id="1UjJBFx8aX4SkcS3IcKZ-18" style="edgeStyle=orthogonalEdgeStyle;rounded=0;orthogonalLoop=1;jettySize=auto;html=1;entryX=0.5;entryY=0;entryDx=0;entryDy=0;" parent="1" source="1UjJBFx8aX4SkcS3IcKZ-12" target="_2zsdvVcME8JWid-AY3Q-80" edge="1">
          <mxGeometry relative="1" as="geometry" />
        </mxCell>
        <mxCell id="1UjJBFx8aX4SkcS3IcKZ-12" value="Region/ISV/StartUp" style="rounded=0;whiteSpace=wrap;html=1;" parent="1" vertex="1">
          <mxGeometry x="950" y="390" width="150" height="40" as="geometry" />
        </mxCell>
        <mxCell id="1UjJBFx8aX4SkcS3IcKZ-20" style="edgeStyle=orthogonalEdgeStyle;rounded=0;orthogonalLoop=1;jettySize=auto;html=1;entryX=0.5;entryY=1;entryDx=0;entryDy=0;" parent="1" source="1UjJBFx8aX4SkcS3IcKZ-19" target="_2zsdvVcME8JWid-AY3Q-80" edge="1">
          <mxGeometry relative="1" as="geometry" />
        </mxCell>
        <mxCell id="1UjJBFx8aX4SkcS3IcKZ-21" style="edgeStyle=orthogonalEdgeStyle;rounded=0;orthogonalLoop=1;jettySize=auto;html=1;entryX=0.5;entryY=0;entryDx=0;entryDy=0;" parent="1" source="1UjJBFx8aX4SkcS3IcKZ-19" target="1UjJBFx8aX4SkcS3IcKZ-6" edge="1">
          <mxGeometry relative="1" as="geometry" />
        </mxCell>
        <mxCell id="1UjJBFx8aX4SkcS3IcKZ-22" style="edgeStyle=orthogonalEdgeStyle;rounded=0;orthogonalLoop=1;jettySize=auto;html=1;entryX=1;entryY=0.5;entryDx=0;entryDy=0;" parent="1" source="1UjJBFx8aX4SkcS3IcKZ-19" target="1UjJBFx8aX4SkcS3IcKZ-4" edge="1">
          <mxGeometry relative="1" as="geometry" />
        </mxCell>
        <mxCell id="1UjJBFx8aX4SkcS3IcKZ-19" value="PM&lt;br&gt;Vaishali" style="whiteSpace=wrap;html=1;rounded=0;" parent="1" vertex="1">
          <mxGeometry x="1060" y="560" width="120" height="40" as="geometry" />
        </mxCell>
      </root>
    </mxGraphModel>
  </diagram>
  <diagram id="Uk8x10l1o8PYJcT1cy7U" name="Gabriel - Pinpoint">
    <mxGraphModel dx="1290" dy="549" grid="1" gridSize="10" guides="1" tooltips="1" connect="1" arrows="1" fold="1" page="1" pageScale="1" pageWidth="850" pageHeight="1100" math="0" shadow="0">
      <root>
        <mxCell id="0" />
        <mxCell id="1" parent="0" />
        <mxCell id="4QT9e3U7wXhSrisN_yPe-1" value="" style="rounded=0;whiteSpace=wrap;html=1;fillColor=#FFE6CC;" parent="1" vertex="1">
          <mxGeometry x="180" y="30" width="591" height="140" as="geometry" />
        </mxCell>
        <mxCell id="jbb1KkWC4b9l7z09PEzk-1" value="AWS Cloud" style="sketch=0;outlineConnect=0;gradientColor=none;html=1;whiteSpace=wrap;fontSize=12;fontStyle=0;shape=mxgraph.aws4.group;grIcon=mxgraph.aws4.group_aws_cloud;strokeColor=#AAB7B8;fillColor=#FFFFFF;verticalAlign=top;align=left;spacingLeft=30;fontColor=#AAB7B8;dashed=0;" parent="1" vertex="1">
          <mxGeometry x="178" y="190" width="593" height="414" as="geometry" />
        </mxCell>
        <mxCell id="jbb1KkWC4b9l7z09PEzk-2" value="" style="edgeStyle=orthogonalEdgeStyle;curved=1;rounded=0;orthogonalLoop=1;jettySize=auto;html=1;" parent="1" source="jbb1KkWC4b9l7z09PEzk-5" target="jbb1KkWC4b9l7z09PEzk-12" edge="1">
          <mxGeometry relative="1" as="geometry" />
        </mxCell>
        <mxCell id="jbb1KkWC4b9l7z09PEzk-3" style="edgeStyle=orthogonalEdgeStyle;curved=1;rounded=0;orthogonalLoop=1;jettySize=auto;html=1;entryX=0;entryY=0.75;entryDx=0;entryDy=0;entryPerimeter=0;" parent="1" source="jbb1KkWC4b9l7z09PEzk-5" target="jbb1KkWC4b9l7z09PEzk-7" edge="1">
          <mxGeometry relative="1" as="geometry">
            <Array as="points">
              <mxPoint x="80" y="248" />
            </Array>
          </mxGeometry>
        </mxCell>
        <mxCell id="jbb1KkWC4b9l7z09PEzk-4" value="setup &amp;amp; configure &lt;br&gt;Pinpoint" style="edgeLabel;html=1;align=center;verticalAlign=middle;resizable=0;points=[];" parent="jbb1KkWC4b9l7z09PEzk-3" vertex="1" connectable="0">
          <mxGeometry x="0.041" y="18" relative="1" as="geometry">
            <mxPoint x="-14" y="-100" as="offset" />
          </mxGeometry>
        </mxCell>
        <mxCell id="jbb1KkWC4b9l7z09PEzk-5" value="Ibexlabs" style="shape=umlActor;verticalLabelPosition=bottom;verticalAlign=top;html=1;outlineConnect=0;" parent="1" vertex="1">
          <mxGeometry x="60" y="20" width="30" height="50" as="geometry" />
        </mxCell>
        <mxCell id="jbb1KkWC4b9l7z09PEzk-6" value="" style="edgeStyle=orthogonalEdgeStyle;curved=1;rounded=0;orthogonalLoop=1;jettySize=auto;html=1;" parent="1" source="jbb1KkWC4b9l7z09PEzk-7" target="jbb1KkWC4b9l7z09PEzk-18" edge="1">
          <mxGeometry relative="1" as="geometry" />
        </mxCell>
        <mxCell id="jbb1KkWC4b9l7z09PEzk-7" value="" style="sketch=0;points=[[0,0,0],[0.25,0,0],[0.5,0,0],[0.75,0,0],[1,0,0],[0,1,0],[0.25,1,0],[0.5,1,0],[0.75,1,0],[1,1,0],[0,0.25,0],[0,0.5,0],[0,0.75,0],[1,0.25,0],[1,0.5,0],[1,0.75,0]];outlineConnect=0;fontColor=#232F3E;gradientColor=#4D72F3;gradientDirection=north;fillColor=#3334B9;strokeColor=#ffffff;dashed=0;verticalLabelPosition=bottom;verticalAlign=top;align=center;html=1;fontSize=12;fontStyle=0;aspect=fixed;shape=mxgraph.aws4.resourceIcon;resIcon=mxgraph.aws4.pinpoint;" parent="1" vertex="1">
          <mxGeometry x="290" y="210" width="51" height="51" as="geometry" />
        </mxCell>
        <mxCell id="jbb1KkWC4b9l7z09PEzk-8" value="Orchestrate Omnichannel communication&lt;br&gt;using Amazon Pinpoint" style="text;html=1;align=center;verticalAlign=middle;resizable=0;points=[];autosize=1;strokeColor=none;fillColor=none;fontStyle=1" parent="1" vertex="1">
          <mxGeometry x="365" y="170" width="260" height="40" as="geometry" />
        </mxCell>
        <mxCell id="jbb1KkWC4b9l7z09PEzk-9" value="" style="edgeStyle=orthogonalEdgeStyle;curved=1;rounded=0;orthogonalLoop=1;jettySize=auto;html=1;" parent="1" source="jbb1KkWC4b9l7z09PEzk-12" target="jbb1KkWC4b9l7z09PEzk-14" edge="1">
          <mxGeometry relative="1" as="geometry" />
        </mxCell>
        <mxCell id="jbb1KkWC4b9l7z09PEzk-10" style="edgeStyle=orthogonalEdgeStyle;curved=1;rounded=0;orthogonalLoop=1;jettySize=auto;html=1;entryX=0.5;entryY=0;entryDx=0;entryDy=0;entryPerimeter=0;" parent="1" source="jbb1KkWC4b9l7z09PEzk-12" target="jbb1KkWC4b9l7z09PEzk-7" edge="1">
          <mxGeometry relative="1" as="geometry" />
        </mxCell>
        <mxCell id="jbb1KkWC4b9l7z09PEzk-11" value="push templates to &lt;br&gt;AWS Pinpoint" style="edgeLabel;html=1;align=center;verticalAlign=middle;resizable=0;points=[];" parent="jbb1KkWC4b9l7z09PEzk-10" vertex="1" connectable="0">
          <mxGeometry x="-0.3257" y="16" relative="1" as="geometry">
            <mxPoint x="14" y="-4" as="offset" />
          </mxGeometry>
        </mxCell>
        <mxCell id="jbb1KkWC4b9l7z09PEzk-12" value="Create Dynamic Rich HTML Email Templates&amp;nbsp;" style="whiteSpace=wrap;html=1;verticalAlign=top;" parent="1" vertex="1">
          <mxGeometry x="205" y="50" width="120" height="60" as="geometry" />
        </mxCell>
        <mxCell id="jbb1KkWC4b9l7z09PEzk-13" value="" style="edgeStyle=orthogonalEdgeStyle;curved=1;rounded=0;orthogonalLoop=1;jettySize=auto;html=1;" parent="1" source="jbb1KkWC4b9l7z09PEzk-14" target="jbb1KkWC4b9l7z09PEzk-15" edge="1">
          <mxGeometry relative="1" as="geometry" />
        </mxCell>
        <mxCell id="jbb1KkWC4b9l7z09PEzk-14" value="&lt;br&gt;using stripo.email" style="ellipse;whiteSpace=wrap;html=1;verticalAlign=top;" parent="1" vertex="1">
          <mxGeometry x="405" y="50" width="120" height="60" as="geometry" />
        </mxCell>
        <mxCell id="jbb1KkWC4b9l7z09PEzk-15" value="Email Templates stored in Stripo.email" style="whiteSpace=wrap;html=1;verticalAlign=top;" parent="1" vertex="1">
          <mxGeometry x="610" y="60" width="120" height="40" as="geometry" />
        </mxCell>
        <mxCell id="jbb1KkWC4b9l7z09PEzk-16" value="use stripo.email &lt;br&gt;templates" style="edgeStyle=orthogonalEdgeStyle;curved=1;rounded=0;orthogonalLoop=1;jettySize=auto;html=1;entryX=0.25;entryY=1;entryDx=0;entryDy=0;" parent="1" source="jbb1KkWC4b9l7z09PEzk-19" target="jbb1KkWC4b9l7z09PEzk-18" edge="1">
          <mxGeometry relative="1" as="geometry" />
        </mxCell>
        <mxCell id="jbb1KkWC4b9l7z09PEzk-17" style="edgeStyle=orthogonalEdgeStyle;curved=1;rounded=0;orthogonalLoop=1;jettySize=auto;html=1;exitX=0.5;exitY=1;exitDx=0;exitDy=0;entryX=0.5;entryY=0;entryDx=0;entryDy=0;" parent="1" source="jbb1KkWC4b9l7z09PEzk-18" target="jbb1KkWC4b9l7z09PEzk-34" edge="1">
          <mxGeometry relative="1" as="geometry">
            <Array as="points">
              <mxPoint x="316" y="419" />
              <mxPoint x="382" y="419" />
            </Array>
          </mxGeometry>
        </mxCell>
        <mxCell id="jbb1KkWC4b9l7z09PEzk-18" value="Create Campaigns&lt;br&gt;Create Segments" style="whiteSpace=wrap;html=1;verticalAlign=top;fillColor=#3334B9;strokeColor=#FFFFFF;fontColor=#ffffff;sketch=0;gradientColor=#4D72F3;gradientDirection=north;dashed=0;fontStyle=0;" parent="1" vertex="1">
          <mxGeometry x="248.25" y="301" width="134.5" height="49" as="geometry" />
        </mxCell>
        <mxCell id="jbb1KkWC4b9l7z09PEzk-19" value="Use Rich HTML Template to fill segment values" style="whiteSpace=wrap;html=1;verticalAlign=top;fillColor=#3334B9;strokeColor=#FFFFFF;fontColor=#ffffff;sketch=0;gradientColor=#4D72F3;gradientDirection=north;dashed=0;fontStyle=0;" parent="1" vertex="1">
          <mxGeometry x="199" y="467" width="110" height="60" as="geometry" />
        </mxCell>
        <mxCell id="jbb1KkWC4b9l7z09PEzk-20" value="Schedule &amp;amp;&lt;br&gt;Publish Campaign" style="whiteSpace=wrap;html=1;verticalAlign=top;fillColor=#3334B9;strokeColor=#FFFFFF;fontColor=#ffffff;sketch=0;gradientColor=#4D72F3;gradientDirection=north;dashed=0;fontStyle=0;" parent="1" vertex="1">
          <mxGeometry x="415" y="515" width="110" height="60" as="geometry" />
        </mxCell>
        <mxCell id="jbb1KkWC4b9l7z09PEzk-21" value="" style="sketch=0;outlineConnect=0;fontColor=#232F3E;gradientColor=none;fillColor=#2E27AD;strokeColor=none;dashed=0;verticalLabelPosition=bottom;verticalAlign=top;align=center;html=1;fontSize=12;fontStyle=0;aspect=fixed;pointerEvents=1;shape=mxgraph.aws4.rds_instance;" parent="1" vertex="1">
          <mxGeometry x="646.5" y="214" width="47" height="47" as="geometry" />
        </mxCell>
        <mxCell id="jbb1KkWC4b9l7z09PEzk-22" value="pull contacts" style="edgeStyle=orthogonalEdgeStyle;curved=1;rounded=0;orthogonalLoop=1;jettySize=auto;html=1;" parent="1" source="jbb1KkWC4b9l7z09PEzk-24" target="jbb1KkWC4b9l7z09PEzk-21" edge="1">
          <mxGeometry relative="1" as="geometry" />
        </mxCell>
        <mxCell id="jbb1KkWC4b9l7z09PEzk-23" value="import contacts to &lt;br&gt;create segments" style="edgeStyle=orthogonalEdgeStyle;curved=1;rounded=0;orthogonalLoop=1;jettySize=auto;html=1;entryX=1;entryY=0.5;entryDx=0;entryDy=0;" parent="1" source="jbb1KkWC4b9l7z09PEzk-24" target="jbb1KkWC4b9l7z09PEzk-18" edge="1">
          <mxGeometry relative="1" as="geometry" />
        </mxCell>
        <mxCell id="jbb1KkWC4b9l7z09PEzk-24" value="" style="sketch=0;outlineConnect=0;fontColor=#232F3E;gradientColor=none;fillColor=#3F8624;strokeColor=none;dashed=0;verticalLabelPosition=bottom;verticalAlign=top;align=center;html=1;fontSize=12;fontStyle=0;aspect=fixed;pointerEvents=1;shape=mxgraph.aws4.lambda_function;" parent="1" vertex="1">
          <mxGeometry x="510" y="250" width="48" height="48" as="geometry" />
        </mxCell>
        <mxCell id="jbb1KkWC4b9l7z09PEzk-25" style="edgeStyle=orthogonalEdgeStyle;curved=1;rounded=0;orthogonalLoop=1;jettySize=auto;html=1;entryX=0;entryY=0.75;entryDx=0;entryDy=0;" parent="1" source="jbb1KkWC4b9l7z09PEzk-27" target="jbb1KkWC4b9l7z09PEzk-12" edge="1">
          <mxGeometry relative="1" as="geometry" />
        </mxCell>
        <mxCell id="jbb1KkWC4b9l7z09PEzk-26" value="Ibexlabs to guide Gabriel&lt;br&gt;&amp;nbsp;to&amp;nbsp;create Templates" style="edgeLabel;html=1;align=center;verticalAlign=middle;resizable=0;points=[];" parent="jbb1KkWC4b9l7z09PEzk-25" vertex="1" connectable="0">
          <mxGeometry x="-0.4084" y="11" relative="1" as="geometry">
            <mxPoint as="offset" />
          </mxGeometry>
        </mxCell>
        <mxCell id="jbb1KkWC4b9l7z09PEzk-27" value="Customer" style="shape=umlActor;verticalLabelPosition=bottom;verticalAlign=top;html=1;outlineConnect=0;" parent="1" vertex="1">
          <mxGeometry x="40" y="270" width="30" height="50" as="geometry" />
        </mxCell>
        <mxCell id="jbb1KkWC4b9l7z09PEzk-28" style="edgeStyle=orthogonalEdgeStyle;curved=1;rounded=0;orthogonalLoop=1;jettySize=auto;html=1;entryX=0.75;entryY=1;entryDx=0;entryDy=0;" parent="1" source="jbb1KkWC4b9l7z09PEzk-32" target="jbb1KkWC4b9l7z09PEzk-18" edge="1">
          <mxGeometry relative="1" as="geometry" />
        </mxCell>
        <mxCell id="jbb1KkWC4b9l7z09PEzk-29" style="edgeStyle=orthogonalEdgeStyle;curved=1;rounded=0;orthogonalLoop=1;jettySize=auto;html=1;exitX=1;exitY=0.5;exitDx=0;exitDy=0;" parent="1" source="jbb1KkWC4b9l7z09PEzk-32" target="jbb1KkWC4b9l7z09PEzk-30" edge="1">
          <mxGeometry relative="1" as="geometry">
            <mxPoint x="553" y="416" as="sourcePoint" />
          </mxGeometry>
        </mxCell>
        <mxCell id="jbb1KkWC4b9l7z09PEzk-30" value="Custom &lt;br&gt;Analytics" style="sketch=0;points=[[0,0,0],[0.25,0,0],[0.5,0,0],[0.75,0,0],[1,0,0],[0,1,0],[0.25,1,0],[0.5,1,0],[0.75,1,0],[1,1,0],[0,0.25,0],[0,0.5,0],[0,0.75,0],[1,0.25,0],[1,0.5,0],[1,0.75,0]];outlineConnect=0;fontColor=#232F3E;gradientColor=#945DF2;gradientDirection=north;fillColor=#5A30B5;strokeColor=#ffffff;dashed=0;verticalLabelPosition=bottom;verticalAlign=top;align=center;html=1;fontSize=12;fontStyle=0;aspect=fixed;shape=mxgraph.aws4.resourceIcon;resIcon=mxgraph.aws4.quicksight;" parent="1" vertex="1">
          <mxGeometry x="630" y="463" width="52" height="52" as="geometry" />
        </mxCell>
        <mxCell id="jbb1KkWC4b9l7z09PEzk-31" value="" style="sketch=0;outlineConnect=0;fontColor=#232F3E;gradientColor=none;fillColor=#BF0816;strokeColor=none;dashed=0;verticalLabelPosition=bottom;verticalAlign=top;align=center;html=1;fontSize=12;fontStyle=0;aspect=fixed;pointerEvents=1;shape=mxgraph.aws4.data_encryption_key;" parent="1" vertex="1">
          <mxGeometry x="738.41" y="173" width="32.59" height="41" as="geometry" />
        </mxCell>
        <mxCell id="jbb1KkWC4b9l7z09PEzk-32" value="Setup &lt;br&gt;Analytics" style="shape=image;html=1;verticalAlign=top;verticalLabelPosition=bottom;labelBackgroundColor=#ffffff;imageAspect=0;aspect=fixed;image=https://cdn1.iconfinder.com/data/icons/iconoir-vol-4/24/reports-128.png" parent="1" vertex="1">
          <mxGeometry x="464" y="374" width="50" height="50" as="geometry" />
        </mxCell>
        <mxCell id="jbb1KkWC4b9l7z09PEzk-33" style="edgeStyle=orthogonalEdgeStyle;curved=1;rounded=0;orthogonalLoop=1;jettySize=auto;html=1;" parent="1" source="jbb1KkWC4b9l7z09PEzk-34" target="jbb1KkWC4b9l7z09PEzk-20" edge="1">
          <mxGeometry relative="1" as="geometry" />
        </mxCell>
        <mxCell id="jbb1KkWC4b9l7z09PEzk-34" value="schedule" style="shape=image;html=1;verticalAlign=top;verticalLabelPosition=bottom;labelBackgroundColor=#ffffff;imageAspect=0;aspect=fixed;image=https://cdn4.iconfinder.com/data/icons/evil-icons-user-interface/64/clock-128.png" parent="1" vertex="1">
          <mxGeometry x="359" y="447" width="46" height="46" as="geometry" />
        </mxCell>
        <mxCell id="jbb1KkWC4b9l7z09PEzk-35" style="edgeStyle=orthogonalEdgeStyle;curved=1;rounded=0;orthogonalLoop=1;jettySize=auto;html=1;entryX=0.917;entryY=1.004;entryDx=0;entryDy=0;entryPerimeter=0;" parent="1" source="jbb1KkWC4b9l7z09PEzk-36" target="jbb1KkWC4b9l7z09PEzk-18" edge="1">
          <mxGeometry relative="1" as="geometry">
            <mxPoint x="352.4000244140625" y="363.79998779296875" as="targetPoint" />
          </mxGeometry>
        </mxCell>
        <mxCell id="jbb1KkWC4b9l7z09PEzk-36" value="Journeys" style="sketch=0;outlineConnect=0;fontColor=#232F3E;gradientColor=none;fillColor=#BF0816;strokeColor=none;dashed=0;verticalLabelPosition=bottom;verticalAlign=top;align=center;html=1;fontSize=12;fontStyle=0;aspect=fixed;shape=mxgraph.aws4.pinpoint_journey;" parent="1" vertex="1">
          <mxGeometry x="648.64" y="291" width="61.36" height="59" as="geometry" />
        </mxCell>
      </root>
    </mxGraphModel>
  </diagram>
  <diagram id="zo9f45WbVz0jo1fQGr_e" name="RGBSI - DSP">
    <mxGraphModel dx="1290" dy="549" grid="1" gridSize="10" guides="1" tooltips="1" connect="1" arrows="1" fold="1" page="1" pageScale="1" pageWidth="850" pageHeight="1100" math="0" shadow="0">
      <root>
        <mxCell id="0" />
        <mxCell id="1" parent="0" />
        <mxCell id="lyRW7HBnTw2ErMueTBcg-3" value="login to workstation &lt;br&gt;with an account" style="edgeStyle=orthogonalEdgeStyle;rounded=0;orthogonalLoop=1;jettySize=auto;html=1;entryX=0;entryY=0.5;entryDx=0;entryDy=0;curved=1;" parent="1" source="lyRW7HBnTw2ErMueTBcg-1" target="lyRW7HBnTw2ErMueTBcg-2" edge="1">
          <mxGeometry relative="1" as="geometry" />
        </mxCell>
        <mxCell id="lyRW7HBnTw2ErMueTBcg-1" value="CAD user" style="shape=umlActor;verticalLabelPosition=bottom;verticalAlign=top;html=1;outlineConnect=0;" parent="1" vertex="1">
          <mxGeometry x="220" y="319" width="30" height="50" as="geometry" />
        </mxCell>
        <mxCell id="lyRW7HBnTw2ErMueTBcg-2" value="" style="rounded=0;whiteSpace=wrap;html=1;align=center;" parent="1" vertex="1">
          <mxGeometry x="450" y="350" width="360" height="130" as="geometry" />
        </mxCell>
        <mxCell id="lyRW7HBnTw2ErMueTBcg-10" value="" style="edgeStyle=orthogonalEdgeStyle;rounded=0;orthogonalLoop=1;jettySize=auto;html=1;" parent="1" source="lyRW7HBnTw2ErMueTBcg-6" target="lyRW7HBnTw2ErMueTBcg-9" edge="1">
          <mxGeometry relative="1" as="geometry" />
        </mxCell>
        <mxCell id="lyRW7HBnTw2ErMueTBcg-6" value="perform modeling to create inputs for Printing" style="rounded=0;whiteSpace=wrap;html=1;" parent="1" vertex="1">
          <mxGeometry x="485" y="380" width="120" height="60" as="geometry" />
        </mxCell>
        <mxCell id="lyRW7HBnTw2ErMueTBcg-7" value="Workstation - PTC Creo/Siemens NX" style="text;html=1;align=center;verticalAlign=middle;resizable=0;points=[];autosize=1;strokeColor=none;fillColor=#FFF4C3;" parent="1" vertex="1">
          <mxGeometry x="530" y="319" width="220" height="30" as="geometry" />
        </mxCell>
        <mxCell id="lyRW7HBnTw2ErMueTBcg-12" style="edgeStyle=orthogonalEdgeStyle;rounded=0;orthogonalLoop=1;jettySize=auto;html=1;curved=1;" parent="1" source="lyRW7HBnTw2ErMueTBcg-9" target="lyRW7HBnTw2ErMueTBcg-11" edge="1">
          <mxGeometry relative="1" as="geometry" />
        </mxCell>
        <mxCell id="lyRW7HBnTw2ErMueTBcg-9" value="Save the print file" style="whiteSpace=wrap;html=1;rounded=0;" parent="1" vertex="1">
          <mxGeometry x="650" y="380" width="120" height="60" as="geometry" />
        </mxCell>
        <mxCell id="lyRW7HBnTw2ErMueTBcg-11" value="Stored final model in file share" style="whiteSpace=wrap;html=1;rounded=0;" parent="1" vertex="1">
          <mxGeometry x="650" y="500" width="120" height="60" as="geometry" />
        </mxCell>
        <mxCell id="lyRW7HBnTw2ErMueTBcg-13" value="" style="rounded=0;whiteSpace=wrap;html=1;" parent="1" vertex="1">
          <mxGeometry x="300" y="120" width="210" height="90" as="geometry" />
        </mxCell>
        <mxCell id="pUbpb0wZJIReV7tjq_z--1" style="edgeStyle=orthogonalEdgeStyle;rounded=0;orthogonalLoop=1;jettySize=auto;html=1;curved=1;entryX=0.5;entryY=0;entryDx=0;entryDy=0;" edge="1" parent="1" source="lyRW7HBnTw2ErMueTBcg-15" target="lyRW7HBnTw2ErMueTBcg-13">
          <mxGeometry relative="1" as="geometry">
            <mxPoint x="417" y="170" as="targetPoint" />
          </mxGeometry>
        </mxCell>
        <mxCell id="pUbpb0wZJIReV7tjq_z--5" value="use Talend to import &lt;br&gt;packages into Aras" style="edgeLabel;html=1;align=center;verticalAlign=middle;resizable=0;points=[];" vertex="1" connectable="0" parent="pUbpb0wZJIReV7tjq_z--1">
          <mxGeometry x="-0.36" y="-4" relative="1" as="geometry">
            <mxPoint as="offset" />
          </mxGeometry>
        </mxCell>
        <mxCell id="lyRW7HBnTw2ErMueTBcg-15" value="Partner package that contains files" style="rounded=0;whiteSpace=wrap;html=1;" parent="1" vertex="1">
          <mxGeometry x="90" y="10" width="120" height="60" as="geometry" />
        </mxCell>
        <mxCell id="lyRW7HBnTw2ErMueTBcg-18" style="edgeStyle=orthogonalEdgeStyle;rounded=0;orthogonalLoop=1;jettySize=auto;html=1;entryX=0.5;entryY=0;entryDx=0;entryDy=0;curved=1;exitX=0.5;exitY=1;exitDx=0;exitDy=0;" parent="1" source="lyRW7HBnTw2ErMueTBcg-13" target="lyRW7HBnTw2ErMueTBcg-6" edge="1">
          <mxGeometry relative="1" as="geometry">
            <mxPoint x="417" y="230" as="sourcePoint" />
          </mxGeometry>
        </mxCell>
        <mxCell id="pUbpb0wZJIReV7tjq_z--6" value="establish OOB plugin &lt;br&gt;to import Aras files" style="edgeLabel;html=1;align=center;verticalAlign=middle;resizable=0;points=[];" vertex="1" connectable="0" parent="lyRW7HBnTw2ErMueTBcg-18">
          <mxGeometry x="-0.6232" y="17" relative="1" as="geometry">
            <mxPoint as="offset" />
          </mxGeometry>
        </mxCell>
        <mxCell id="pUbpb0wZJIReV7tjq_z--2" style="edgeStyle=orthogonalEdgeStyle;rounded=0;orthogonalLoop=1;jettySize=auto;html=1;entryX=0;entryY=0.5;entryDx=0;entryDy=0;curved=1;" edge="1" parent="1" source="lyRW7HBnTw2ErMueTBcg-19" target="lyRW7HBnTw2ErMueTBcg-13">
          <mxGeometry relative="1" as="geometry">
            <mxPoint x="270" y="150" as="targetPoint" />
          </mxGeometry>
        </mxCell>
        <mxCell id="pUbpb0wZJIReV7tjq_z--4" value="login to Aras app &lt;br&gt;using Aras account" style="edgeLabel;html=1;align=center;verticalAlign=middle;resizable=0;points=[];" vertex="1" connectable="0" parent="pUbpb0wZJIReV7tjq_z--2">
          <mxGeometry x="-0.2272" y="-9" relative="1" as="geometry">
            <mxPoint as="offset" />
          </mxGeometry>
        </mxCell>
        <mxCell id="lyRW7HBnTw2ErMueTBcg-19" value="Additive user" style="shape=umlActor;verticalLabelPosition=bottom;verticalAlign=top;html=1;outlineConnect=0;" parent="1" vertex="1">
          <mxGeometry x="70" y="140" width="30" height="50" as="geometry" />
        </mxCell>
        <mxCell id="pUbpb0wZJIReV7tjq_z--3" value="" style="shape=image;verticalLabelPosition=bottom;labelBackgroundColor=default;verticalAlign=top;aspect=fixed;imageAspect=0;image=data:image/png,iVBORw0KGgoAAAANSUhEUgAAATIAAACkCAMAAAAjUFIdAAAAyVBMVEX///9SU1XOHiXLAABMTU/OGyLNExzNFx9kZGZPUVPMAA7MAA1KS03OGyNERkjNDhjR0dKLjI3MCBTMAAZwcXNCQ0aSkpP++vo+P0Lvw8Tdd3r5+fn12Nn88vL66uv119ijo6SBgoPlmpzmn6HPIyrghojbbnHjkZPyzs9ZWlvh4uLZYmbYW1/VS0/qra/RMDbuvr/VSk7rs7Top6m2trfTPULee37WVFjhiYvYXmLaaGvSOT6oqKm0tLXu7u5qa2zd3d3ExMUuLzKsr7zRAAAYXklEQVR4nO1daUPyuhKuDW2lpURbsYBQWQVFBUEEd7n//0fdmaQtKXTDc+5FlvnwqlDypg+zPDOZpJL070prwH70H//lcfdXWmTGfpLalieyM+IQWsWfvc62Z7Iz0jb0NvxwSXvbM9kZ0RTShx8D4m57JrsiIyITB3w/edv2THZGnjQVA+b06PyzSo3I9liSxuR12zPZGbmhaJeOdlSyrOISmb4AwTh6sszStWTQL5ccw2VWcYisPYF1kuq2Z7Iz0tZlUoEQcFSyzKIpyhB4hnFUsqwytpFhjI5Kll2GmkklSaazbU9kZ6RCZMjIW4bV2/ZMdkZmqkykOpGt1rZnsisCNNaaI/0/allWQRrrQo7J+P9RMoijm+q99KABZDfbnsuOCDAM0kclk9VjgplNHjSgsVUqKzIWzJxtT2cHBJy/PoEcU3lQ1FdJmh+LP6mC6WV9Ysi01VFnkJ8fE4BUmWqgXFNNpvM3ayb1tG3P5+8L2CWpwD8afWnbDxKZb3tCf1/auqlJc4tW9Zs+eXhk63JHSZSpRruSpqjX5LVOhh1l2/P5+4J26VaI1auTqWQpVnfbE/r70tK1qfSqQpwksvSkkcq2J/T3ZajokzoBdiENifRCjxQjVa6xq6Cto3K9EemGDrc9ob8vVQqkbKih0++Smq4ey7JpAnkSGV0TVicDVqZpD9ue0Z+XiWFaoGnMg40NTTblbc/oz8tQoS+Sxc2xYsuyfHT/KdIHu7weEX2Cf1SIrMhHkpEiN1TpSG8qx+nRoD31WP1PFlxT6kmGbI/wrwfNGL3T+21P6m8LVsogWeJrcVhpfHyxjsQsURRFG0o9S2a963P42R0b9rGQnSBcv2aarL3DX1RT1NcaORZ/kqSFy5cSNTXZcgC/YVsfOsaR/yfJmwrx0iXaA/bH3hvdik2kd4WMtz2vPyxDxZoDgTXGhjGuE1LDhrwXqhwDQKxgftmXejp1LGs+ITPgHKQ/1uV0b+aMujcHGSVqABmwMTqTplpniEDpxgRepCmF2f4bIcQ6SMjGBr0BzYKgOVBlDXfHPekvki0nWqbb7hBqkQPNEbqWPYZACeoFlIwlSlX9QXrXElLz/oDomkXm9f/jNP+STDVSx9K1g2yWObC2bsELcam58zgkqmmR7qEChuxiKkmmOmUEzUDfNLKJ+6jLetR+TKdFbU2mBwwYqpTeghCAzr5LTbZ82SesaSqqy2ysGSYAVj3octpQAQLb1rGK8aCZKr5UIaBgRFbWNkrXnogia2Rw0ICBRikmggW+vk68amzFBgWbgv8PG59bJZqskIfr7cz0z0iVWl1gs6hRfYQM3X8f3VuVyqH9hQAYlWWjM9rWTP+MqCagNLKx7jOyZZnVsnEXqwT+317CUxsgYJRk7W6v76/tugTdV5UaY1Zp5CWzOuGd2UE1u/ZKVBls8lUEot+aPcWMCrxtf0lun2DDim6iDwMqxktmUkcBBQtCpjtAwGSLCjzNaSuE0Mje0DokBpm1cQelZZFrMESWHIHDlzHdxOUTULAnjadMXQaYRoS9AO4c2D8ZROWXkHnaZLjPfbZDtYMWiazMoaa/gPloqK9s4wRETxXMVTbJcBkn3RtiKbYZkRuggunkfa8jRAWzcWmmoaMH56WZPEtyUe0gGtjXXSBisqnT5YFJGAgUw5qsDwYKplPysOcV8CfkY1gwq7PGgteOyZd/OwpxXOAcNkUnRnqBCV7fE1WxtfVUqt4eEkrJYN9JGyNg3r/S3LJaVZVvX4IQOsJowABbFiwwcip2Z/2MrgovbRxAHjVTMfXuWYxN3KvGeGTwnp+xIRsMMVXIv8EkVdPurK8JTGRAUjcOoRaEfXguy5bQgYExXtcJD5mslQXj5EMAAzh9KlsRPmyiGYpiq62DqM++sTURz5U5lgk/WPFMcofM6YMv88MiS5dA5dZweZRtAKwTEQ32UXDHapcl5si/6izPrFJILME8AbHOI1gnd1v1LgCmkNmaq5ogYCTCVvdU5hajFC2LufwaUe/xD31cJaZMTe1JoiZbMnF6tgVhQFulW/WWioANDwYwyTFMZpEzjenSyMYgAHmmRWVqd4cQRQcqbpkba7qJ5H/FJt0XW0eTPBzAeOud58owv+lZyGcZszAGdWlAh4CfMqzPkMwawzDfckYzMFXTUA/Eh3kCrgrrFn1+KB6y2hpPmlg23tJVVkCzVMwvw3WJStW2wdtZxh4n35Ey5t4dVAkL1nViGpIzxQycIdgnVq9nMaahh1RsdGNj6UymZH4QtEIUgAwt8l5lWjWylacKVYON5djZyBBTiLhq3taJR3Fv9p/prwl4eh1+UJMtvt0Ai7BNU1e8wqLD0yVZMYU025kSkzFcMtvn8k6sdKk24x0ZyFd1xEK1xlOFtX/WhxoqGDh+gVo475Tr3XTPqxVx8sraric6S5paWBXT310InMjFrtFElWGNk11P+jLarWnIh8QrQkJNTIduqGlJThVPx2An440NdSCxKplsqpC3K/4e8/49e9EyDvdM4zrPyTuK8jRhLt1gPgyIRYei37ewQtsnXpvZpMPK2TQiyzwc4akl1hEVC/2Y1xuFL7CI2FJxUa6DO3WkWsdW2ItvBxgml9LWkVwA0/DEa1p55KV+yMBfKHi1iW7qWINkYfLQ18kHKtasMUFSLALAEcTDuUElU3R08BVbe4dEVKZvqIWQfh/8tibc6SW5gJU27PX7NuP8IxWdmmmyuiJzdi68oGKY1H73hIkrlF9+8F8a8rczWBPIMInkmopsYrvr2ABXVn8jigbJo2nyS4YKUFtGXS1982zya9G4OD0plkrFwslps7H4yvzJs4/mab5Y+s/P6ht3z5cXt/nsQ7Lrc3h9/vbicoMZRAtGyrGOyTVr9QRaO7IoMLPKQ9Dx86bKJl8x2ThMfjVOy8VcLn/CJZ8rFMunn1Fz/r4N5OQDX3g+KRXYB0t3K0PellaGLH0/x+sPXC9MIZ/L4Qz+ibqNMVIyFWL4dBRZM0wT00nXKwZJbkfhgUHddNfc1WW54N/aUvKF0uX6lE9zeV+KANnVRcn/ZAiyr2bkkMViI3oKX+cR18PlHxveiiCyBwdPwuuMWagWc/ADFXtaRpy56rbMToDeRM4KhbWb41IoLFYvPl3eWOEZEQz+FCFblHJR4+GH8mcRU3iOu754exdxeRZpB9wCM4AaJpSy7a0mAft46VHGXGV9wprONrLL53LM3aGUGytXC5AVF9K5ALYAWSNhyHz5c20Kl/HX58tr31omqfOChMx7MNqMdgVlxDmVKdAKzQYFA3170jLsMxFkkYQYANEIXy5CdvYjfnYJ2WfykGuYNUqJl0epZaoMGJdgiqTXHphVGgEsrJvFJNNKxZa1KasRbZBWfiXfHsw4/C2LkP1ciOYUQPaTOuRPaMizlOtLvwidPcIqEv0q67hgFqgOvPecJ1auUJGGIcF18UizDTYaNuOcTiC5OMgKn8XQnd2tXxIt+dvQkLmU63Pfv0MMrW2i++YZnPE5sjwfhn/MVPwFAmf2LcB34W8YqEAht3ILxZAdCXjkw9j4kJ2FzYwPGQahJGrucwh4oCIgxdAHSpuaJkcMmQPLJ2Ud6xa8YdF585wcN8WWJauvuNxpZ+4YuxTnVih9nzc+Gs3bUPzKn8ZAdhKG1ocspLfF4sVlo3HZPCmJF+eaMSMWThpnX19fd4umeH1+QzXjiMn6Iyteg9NqI8VgkFWoBckAkgvLLwRBigD/qpmfliPcHvAsn4bdXYjffMiXRFodEM9crswhuyqKrwfc9edbZDKl5YCiMy2cBy/f3QpTK23ENDzE0C6xzmMaNVzJRMggJVdky+jVwBI9peNd7RAPsh7OcicYUUGc17kw4aJoRuuQAeW9vWg2m6f882dLyPInIthirCj9BC+L14v6fHUies1fIAYg1DvALfCRS+xU7Oq1bOFCW52xDI+9gjMDfQNlzHpo9mI53xAw0pWIpUjB1yAr3oYTq4+lNgnAgNwJ6if8Z4IryzVi5hYy5BRhiFFumCYuiOBxSNi8LncMRfMW2ipE5htz8B0AD/cDZFSzRinnSSEffkcAJXcpvL4KWWk1pTkvBkOGnGDIYgW1+VxCnA8jUy4sJdPdoHRZiX/8itTVYnVWMEBHZS4fmJhXQXT8jTlM/4jjAGR0kDTucr6XgYRvXdSyWGd9EhXMGsGI58+hN0QtKzSWUxB8XDilvBIk091IPmLsSAxP0M0zXitb1rIg9qAxg5Vw7wlmVGCf//CoqS8x7CVAVsqezXx9C58UFHchRhqMmP+keuEj5jBuoVkcsjeWbupVgXq1dN95vVDcYv4Ilxi/fYjt1d2icRHiRbkL4e0QZKF3Eob8gSHDLGMZGs9CtAx4WfH7cvHLXLyNAZI8et09+hOwLlkbTFkXQbhYUSP+4smIbTF3f/nUhLvFB3CyUrEQZp75WMiKqRwT8G/elmHIsD0LkF2tpUv5XLFUuACCtun8sUKmYYLNlM26wU5ZeIXbKA0/d8nyaYXn1iA137ACdHXW+GZgRdCueMhysePhkIvL03LMkAJkIfIhXFEolm8vF5tY6QhuXjVdyZlh5zB2rfstxMyThU/EfqNYw0ABtwYmCZmVF0OzyeKivKoHWSBLiP1XzzBkfPIoQhaflYO6lZuZk6VHbBWbOpLbYc4eAanyRhXKcvNwbX9s+Fu+gGZA+omWSbK2qF81VlK6zJAV4mqmX5flYmKuLUImNeMqnOzK8kU2A8UGAmsmeSuSrLA45qSW3FQMPw0PxCWcsTG3ZlpM2UjGRczPctKMEyErxsTLRjmtPBKCTPpOnEEuS8HMHUKM1O/Rn3mlRdp78RDrMSa7mncPFX/LL9AMcIAQM/VsPZ4XxeiJillxHGRhdu/L1WnMkLGQSaEkfF3Kkf9PCDFcSELE5rhGYizNEaDq8eR8VYW6ls8qXthTmSBzV7OQ2avTKH0AH1IQizyxkEWZzFc+ZsjcaSxk0uIkyZDzhZQoUNc8xHAlnHYq6tLrs0PKIByuEdVKsH8VfsNtrfcq33aSIuvRii3HXS7EVDHel0XdyfqXwIc8EwtNq5ABaN/lQqw5Fy4j/iNBsP9Vf4UcW2cR4JosIWPGp5jyGhyQI/lHPvAEkz1wKBWxxUo1sFDKNz84/W5kgCyKY3yErTJXKJ00P/mQ50mQgXp+XgAfi4attH65IC86Q6yOHYhkEARKGZNytiuayBEnIs2CI3/AbsFGHZKFzN6GSFbp+1NYJMoA2cn6iFehLyFXunheDpkCGcrPZ/OkFEFO4gINEzAsRMztYJ7YlaQJVzLNAFCY7SGBWPdTEBM8ZlbhFcY31dST0EIJlZwLFz/iexkgWynhMwlljMVmKPHJABnKF1DgVdoTLguFxYUYqQ+kGtUgWZpwtoFu/8ltecdIoaGuH1WG59fwjMAxTFN3MHVKtUwBFrEguvreJpCFSpON2PeSIEO5OjsPgZaPT2ZrVJGNAbbfyQqpANuwfGqBHReswo9qaKx3v3YU35nhg8z76N1SLTPk/FfeywLZqbQmtwlvbwAZyFdodhHfDpcJQAU6VoEfqloDWuYRWUQIyCpjY4/GOseQmMvznNmI9xgjcimzEm4/txqThPvbBDKxkL+aG1wI/10A2UdzKT/h60+S3SaTOfdjIzBO673uGyV39izhRqSwoBHRQTCy/ZqZY7BPgDamLTQJKiHU/JiIbu63kIUrjCE3J0AWFHFzqz0rDUHNYrSsRRgfw/TSuJfcdyyTadTr5Kn5vRYvNLJKUQ+cGeNkLkbWtBYgAbKVytdXLgP7T4FsRXHFlRkBsoW4uhIeS4AsZlluxPNKDJHkBf5Co6RPXW/tY+wftohLIlENd1PN9PrXJzrLlt7UtNJsKF/8Ed74CtnEJpCJuISSg58QvV9CJq7JrajZaZQhi4KxEhBDVSMtXiST6VB69bw+HonN+P27Ep1x4wZXnmbiARoPDOSUZwCL1ep8/id4/TOc8m0CWWhl+DbA7GqlF0iAQPxEqMElFM9XjJyJ09EQsR4BcjGSnlhmaUwdlmZjG5kfMFnjRdT986dLM8FHJtTR+60fAhcScaXiJA+08wcXqi9X2802gSy0+p4vNxcw5M/ivLQypABZqL+geOFXLc5C9YJyVDZ7Tz3ENFKrsUYLBU/tCY516yicZ8EL0QVX4Q2Inuj58XnTiV3ZKw0ZuYh2iE0hW2nIiBtSNLRi+APlW4id36X41Qdf5mBFD4iYKtfHrB/R6PDT3GRTdbyAiUXD69hM6D1omgWTRCMGOpJSzoiuIf8TyKSThIpENGTPK91l2K2wMkhU9Qe5FEMM8nBWGVO947HGBitis9IhO6oSyIQevXhUDarZoHCYLQUaGitpnV2/gGyR2F4XBVn6F1eMKGSA66cMMftVmqEbC85r8B+EgO12rGsMnygRbW0QKP32lQfeyXivpj3R/DytIrsGTRpk2TQ3vGpwm/yRQhTDGGrqOyIG3muK57iRoKIKqsOcOuDBAyZ7Vnnk7V8vu2RxG/oL010l5eGscTVksSMslEumQnYVB4BY1wk7p6vTpG8uErEbS7EcYBeQSmLJh3aWW3SnGj9hhRdbJc5ToxdCsK/AXlomrjBhD1DKZszoQna5sRBDvFBKTIUsBoB8+fNDfD38mfNynAvMl6Mo2QT32uA/c6Zj5FVIh/zGp4HqFfMBQyPm7iFC+paJCeY1M+vU9cyItY1CbhGmmEK1Kh0ybLBeH/LkR/oR3NzqssHZbWQlO1+8jVorAc+u3kCWZL9IDxRYmUg/0YOzM51R21jGqJmxZAvXUTzLBCPFpU6XRKbwYblrlsQ1TH+HxG2p6EtJsMyYl8PycxHa+ODvkCguP1teow2L71J4lTifK5S+I0uLjgmUQtVlayDNQCnCvh04Bi/FUnNJy+IeuVcTykJTfrAxKGfUMdAr8vVxUYC7KRQAhuLpB6eNd2eCLJmk+GrCYtndx3cxGPLb21jzI352fd3g67l5UkJUC/h9lE6azzErmK+8UA0GNAAXPwy79oBaEa/wH3MUNhdg/X4mjrvEKl4raJYeoKu7s8Xz8/PZz7+zSY0N+YNDLjYbkn3oEz8Vv+Db9io82uxNl+3V0oPv9QOK1U96ekSXBovkEAsYemDQ+/bstFqwfqSpMlkD491zYa5PIIDaxufaqFN+k5RXcoREwKT/q8lvR/zdbawtcW19O+hPZNUyfAWP+I+nDbgvx/N0fe8wY03xmceeSNUKEFMiSP21X4yAX/hTQ7uJTf3Yiea7Lk0xkY20dJ5x7YtUlsu6ihFxxAzmQAPvQn7jEAITWANapl8BQnDHnhfco9NrFGVplVG3BQ6Je66R583ZPriECAgx09epvocy9oJW4z+xY9Jd7kkikdY2VLwDKZFsvHmvJDWO9aylZSq8G8glkcsruynLaCnHnB0fGFXbbyAGl2YlDIn4+FvxgXKwA4Be1f0JAE9Bb3rMM1SXCgLawyzUoSYvmyWM6VvmtZeb9+PquLsn40DJ1GG04VSC6j04JJaVe2uU8cIWhj3L9J+aPE32f7sjjhrssO/EeCe4f08/bryKaz1tf6ojWKZfnhyRPckA5noaYnjPXvEe/REqDHYnJqfZAK5vmWDXJiuDdJS9yABcElhlbASsBlve/HbhemrbmJiIo0ViJG4be/Fc84HXaUff4wnAa7Aw/u61D7vpz3SEFMzvLMaVJqQmjmH6G6t3WPx2zjjPzwRImMflFX5wMYNsHv8BFMiQgl4Mw+TbzHElfedPqvcIhmYm3cmyMOFn5W66J0cPRr3vwd9m7pKNDoL4k+Ill2Zi8Mfox3Nw9hv+kgEyNGc/DXX9XvYbmtJr8PflnitZcmsmY7IV7zd+yzWS1prCvo5gZyEum9T557LuNvmr4qVJyRtAav4z4/xeHvZL+q4RRQlOSq35x1neq9FZ7O5Ih/VzphQYroP1ITzH4c17KaHC6EnPWtJdgKrGR9j11LxKdJ2kxf1+ANnY7xXup3dzsqcyBY6rRrz8apoSaP++9FvtVN/CTiJgOjLRPRdWIVlI6Uw1ApV68xB2d1zJsgkeiMoh6/m7uip2lhLriOxHGr65PAaQ3VDPHnFrUgY01H3Ij34jy0LOvU+1HsFCM1hYl/z2/IIdlyVkQcWrrXu7e5Olv08LJJsIHlfGkcJGWa86m22F7UDP9xcgwyYW9tLc2oOSxP9QHgPIgqNDXqiVUvs5bGGQMacUdMHe0NQU86BlEkD27j9Z6V5Nz5cOWeYGJTzzeSNe0vigZT9m8RBlPuyOOAnr+9Y4VI6QbSYOpYfKuH4rdfJyoMmj9F+lvAnlMo9rfgAAAABJRU5ErkJggg==;" vertex="1" parent="1">
          <mxGeometry x="301" y="121" width="56" height="30.01" as="geometry" />
        </mxCell>
      </root>
    </mxGraphModel>
  </diagram>
</mxfile>
